<svg width="364" height="391" viewBox="0 0 364 391" fill="none" xmlns="http://www.w3.org/2000/svg">
    <rect width="364" height="391" fill="white" />
    <path
        d="M156.452 338.764L160.002 343.646C153.79 348.527 148.021 350.302 140.478 350.302H55.2796V58.7641C55.2796 51.6643 54.8358 47.6706 50.8422 39.6833H76.5791V344.089H138.703C145.359 344.089 151.128 342.314 156.452 338.764ZM312.671 350.302H283.384C284.272 342.314 283.384 338.321 280.278 331.221L229.248 210.967L168.899 350.302H161.8L225.698 202.536L164.906 58.7641C162.243 52.108 160.025 47.6706 155.143 39.6833H184.43C183.543 47.6706 184.43 51.6643 187.536 58.7641L237.235 175.912L296.253 39.6833H303.353L240.785 184.343L302.909 331.221C305.571 337.877 307.79 342.314 312.671 350.302Z"
        fill="#111111" />
</svg>